# xmcd CD database file
#
# Track frame offsets:
#	150
#	12440
#	26777
#	36705
#	53855
#	64035
#	77677
#	84900
#	96997
#	106160
#	114432
#	127165
#	137765
#	144682
#	152250
#	163922
#	175130
#	188905
#	195952
#	204910
#	215742
#	223557
#	227295
#	233072
#	235545
#	241947
#	247797
#	252210
#	260882
#	265765
#	269900
#	272100
#	277812
#	284475
#	287182
#	292855
#	299875
#
# Disc length: 4037 seconds
#
# Revision: 4
# Processed by: cddbd v1.5.2PL0 Copyright (c) Steve Scherf et al.
# Submitted via: CDex 1.51
#
DISCID=300fc325
DTITLE=Johannes Brahms - Danses Hongroises - Valses  [Piano à 4 mains, Marie-Josèphe Jude and Jean-François Heisse]
DYEAR=2001
DGENRE=Classique
TTITLE0=Danse hongroise  N° 01  en sol mineur  (Allegro molto)  [in G minor)
TTITLE1=Danse hongroise  N° 02  en ré mineur  (Allegro non assai - Vivace)  [in D minor]
TTITLE2=Danse hongroise  N° 03  en fa majeur  (Allegretto)  [in F major]
TTITLE3=Danse hongroise  N° 04  en fa dièse mineur  (Poco sostenuto - Vivace)  [in F sharp minor]
TTITLE4=Danse hongroise  N° 05  en sol mineur  (Allegro - Vivace)  [in F sharp minor]
TTITLE5=Danse hongroise  N° 06  en ré majeur  (Vivace)  [in D flat major]
TTITLE6=Danse hongroise  N° 07  en fa majeur  (Allegretto - Vivo)i  [in F major]
TTITLE7=Danse hongroise  N° 08  en la mineur  (Presto)  [in A minor]
TTITLE8=Danse hongroise  N° 09  en mi mineur  (Allegro ma non troppo)  [in E minor]
TTITLE9=Danse hongroise  N° 10  en fa majeur  (Presto)  [in F major]
TTITLE10=Danse hongroise  N° 11  en ré mineur  (Poco Andante)  [in D minor)
TTITLE11=Danse hongroise  N° 12  en ré mineur  (Presto)  [in D minor]
TTITLE12=Danse hongroise  N° 13  en ré majeur  (Andantino grazioso - Vivace)  [in D major]
TTITLE13=Danse hongroise  N° 14  en ré mineur  (Un poco Andante)  [in D minor]
TTITLE14=Danse hongroise  N° 15  en si bémol majeur  (Allegretto grazioso)  [in B flat major]
TTITLE15=Danse hongroise  N° 16  en fa majeur  (Con moto)  [in F minor]
TTITLE16=Danse hongroise  N° 17  en fa dièse mineur  (Andantino - Vivace)  [in F sharp minor]
TTITLE17=Danse hongroise  N° 18  en ré majeur  (Molto vivace)  [in D major]
TTITLE18=Danse hongroise  N° 19  en si mineur  (Allegretto)  [in B minor]
TTITLE19=Danse hongroise  N° 20  en mi mineur  (Poco Allegretto - Vivace)  [in E minor]
TTITLE20=Danse hongroise  N° 21  en mi mineur  (Vivace)  [in E major]
TTITLE21=Valse  N° 01  Op.39  in B major
TTITLE22=Valse  N° 02  Op.39  in E major
TTITLE23=Valse  N° 03  Op.39  in G sharp minor
TTITLE24=Valse  N° 04  Op.39  in E minor
TTITLE25=Valse  N° 05  Op.39  in E major
TTITLE26=Valse  N° 06  Op.39  in C sharp major
TTITLE27=Valse  N° 07  Op.39  in C sharp minor
TTITLE28=Valse  N° 08  Op.39  in B flat major
TTITLE29=Valse  N° 09  Op.39  in D minor
TTITLE30=Valse  N° 10  Op.39  in G major
TTITLE31=Valse  N° 11  Op.39  in B minor
TTITLE32=Valse  N° 12  Op.39  in E major
TTITLE33=Valse  N° 13  Op.39  in B major
TTITLE34=Valse  N° 14  Op.39  in G sharp minor
TTITLE35=Valse  N° 15  Op.39  in A flat major
TTITLE36=Valse  N° 16  Op.39  in C sharp minor
EXTD=YEAR: 2001
EXTT0=
EXTT1=
EXTT2=
EXTT3=
EXTT4=
EXTT5=
EXTT6=
EXTT7=
EXTT8=
EXTT9=
EXTT10=
EXTT11=
EXTT12=
EXTT13=
EXTT14=
EXTT15=
EXTT16=
EXTT17=
EXTT18=
EXTT19=
EXTT20=
EXTT21=
EXTT22=
EXTT23=
EXTT24=
EXTT25=
EXTT26=
EXTT27=
EXTT28=
EXTT29=
EXTT30=
EXTT31=
EXTT32=
EXTT33=
EXTT34=
EXTT35=
EXTT36=
PLAYORDER=
